<?xml version="1.0" encoding="UTF-8"?>
<svg id="Capa_1" xmlns="http://www.w3.org/2000/svg" version="1.1" viewBox="0 0 772.97 178.38">
  <!-- Generator: Adobe Illustrator 30.0.0, SVG Export Plug-In . SVG Version: 2.1.1 Build 123)  -->
  <defs>
    <style>
      .st0 {
        fill: #fff;
      }

      .st1 {
        fill: #66c6f0;
      }
    </style>
  </defs>
  <g>
    <g>
      <g>
        <path class="st0" d="M163.25,91.7c-.87,0-1.58-.68-1.58-1.52,0-1-.03-1.99-.07-2.98-.04-.84.63-1.55,1.51-1.59.91-.09,1.61.61,1.66,1.45.05,1.04.08,2.07.08,3.12,0,.84-.71,1.52-1.58,1.52h-.02Z"/>
        <path class="st0" d="M162.56,82.56c-.77,0-1.45-.54-1.56-1.3-.3-1.96-.7-3.93-1.2-5.85-.21-.82.31-1.64,1.15-1.85.85-.2,1.71.29,1.92,1.11.52,2.02.95,4.09,1.26,6.14.13.83-.47,1.61-1.34,1.73-.08,0-.16.01-.23.01h0ZM159.48,70.7c-.65,0-1.26-.39-1.49-1.01-.69-1.87-1.49-3.72-2.37-5.52-.37-.76-.04-1.67.76-2.03.79-.35,1.73-.03,2.11.73.92,1.89,1.76,3.83,2.49,5.79.3.79-.13,1.67-.96,1.95-.18.06-.36.09-.53.09h0ZM154.05,59.65c-.54,0-1.06-.26-1.36-.74-1.06-1.7-2.22-3.37-3.45-4.96-.52-.68-.38-1.63.33-2.13.7-.5,1.69-.36,2.21.32,1.29,1.67,2.5,3.42,3.62,5.21.45.72.21,1.66-.54,2.09-.25.15-.54.22-.81.22h0ZM146.49,49.84c-.43,0-.86-.17-1.17-.5-1.38-1.47-2.85-2.89-4.38-4.22-.65-.57-.7-1.53-.11-2.15.59-.62,1.59-.67,2.23-.1,1.6,1.4,3.15,2.89,4.6,4.43.59.63.54,1.59-.11,2.15-.3.26-.68.4-1.06.4h0ZM137.09,41.63c-.33,0-.66-.1-.94-.3-1.66-1.19-3.39-2.3-5.14-3.32-.75-.43-.99-1.37-.54-2.09.45-.72,1.42-.96,2.17-.52,1.84,1.07,3.66,2.24,5.4,3.49.7.5.85,1.46.33,2.13-.31.4-.79.62-1.27.62h0ZM126.23,35.34c-.23,0-.46-.05-.68-.15-1.86-.85-3.78-1.62-5.72-2.29-.82-.28-1.25-1.16-.96-1.95s1.2-1.2,2.02-.92c2.03.7,4.05,1.51,6,2.4.79.36,1.13,1.27.75,2.03-.27.55-.84.87-1.43.87h.02ZM114.29,31.22c-.13,0-.26-.01-.38-.04-2.01-.49-4.05-.87-6.07-1.16-.87-.12-1.46-.9-1.34-1.73.13-.83.92-1.39,1.79-1.29,2.13.3,4.28.71,6.38,1.22.85.21,1.36,1.03,1.15,1.85-.18.69-.82,1.16-1.53,1.16h0Z"/>
        <path class="st0" d="M101.69,29.43h-.08c-1.02-.04-2.05-.07-3.09-.07-.87,0-1.58-.68-1.58-1.52s.71-1.52,1.58-1.52c1.09,0,2.17.03,3.24.08.87.04,1.55.75,1.51,1.59-.04.82-.74,1.45-1.58,1.45h0Z"/>
      </g>
      <path class="st0" d="M98.53,154.04c-36.56,0-66.3-28.65-66.3-63.86,0-33.21,25.86-60.55,60.14-63.59.89-.05,1.64.54,1.72,1.38.08.84-.56,1.58-1.43,1.66-32.65,2.9-57.27,28.93-57.27,60.55,0,33.54,28.32,60.82,63.14,60.82,31.99,0,58.95-23.04,62.7-53.59.1-.84.89-1.46,1.76-1.33.87.1,1.49.85,1.39,1.69-3.94,32.09-32.25,56.29-65.84,56.29v-.02Z"/>
    </g>
    <g>
      <path class="st1" d="M117.27,85.61c0-4.69-3.95-8.49-8.82-8.49-4.02,0-7.37,2.61-8.43,6.15-1.06-3.54-4.42-6.15-8.43-6.15-4.87,0-8.82,3.8-8.82,8.49,0,.4.07.79.12,1.18h-.03s.43,9.3,16.77,20.93c0,0,10.19-5.61,16.34-16.78.98-2.22,1.3-3.48,1.3-5.33Z"/>
      <path class="st0" d="M100.02,129.71c-27.6,0-32.91-21.35-32.96-21.56-.03-.14-.05-.28-.05-.42v-34.76c0-.57.26-1.11.71-1.48l30.57-24.7c.75-.61,1.85-.6,2.59.02l29.66,24.7c.44.37.69.9.69,1.46v34.76c0,.18-.03.36-.08.53-.06.21-6.62,21.46-31.15,21.46h.02ZM71.01,107.49c.56,2.06,5.73,18.37,29.01,18.37,20.37,0,26.46-16.14,27.23-18.42v-33.59l-27.68-23.05-28.55,23.07v33.63h-.01ZM129.24,107.72h0Z"/>
    </g>
  </g>
  <g>
    <g>
      <path class="st0" d="M199.89,147.22v-15.36h5.85c1.31,0,2.43.21,3.36.64.93.42,1.64,1.04,2.14,1.84.5.81.75,1.76.75,2.87s-.25,2.07-.75,2.86c-.5.8-1.21,1.41-2.14,1.84s-2.05.65-3.36.65h-4.67l.96-1.03v5.68h-2.14ZM202.03,141.76l-.96-1.1h4.6c1.37,0,2.41-.3,3.12-.9.71-.6,1.06-1.45,1.06-2.55s-.35-1.94-1.06-2.54c-.71-.6-1.74-.9-3.12-.9h-4.6l.96-1.1v9.08h0Z"/>
      <path class="st0" d="M214.64,147.22v-11.63h1.97v3.16l-.19-.79c.31-.81.84-1.42,1.58-1.84s1.66-.64,2.74-.64v2.04c-.09,0-.17-.02-.25-.02h-.23c-1.1,0-1.97.34-2.61,1.01s-.96,1.65-.96,2.92v5.79h-2.06,0Z"/>
      <path class="st0" d="M228.02,147.36c-1.14,0-2.16-.26-3.04-.77s-1.58-1.22-2.1-2.12c-.51-.9-.77-1.92-.77-3.06s.26-2.18.77-3.07,1.21-1.59,2.1-2.09,1.9-.76,3.04-.76,2.14.25,3.03.76,1.59,1.2,2.1,2.08.76,1.91.76,3.08-.25,2.18-.76,3.07-1.21,1.59-2.1,2.11-1.9.77-3.03.77h0ZM228.02,145.51c.73,0,1.38-.17,1.96-.5.58-.34,1.03-.81,1.36-1.44.33-.62.49-1.34.49-2.16s-.16-1.55-.49-2.16-.78-1.08-1.36-1.42-1.23-.5-1.96-.5-1.38.17-1.95.5c-.57.34-1.03.81-1.37,1.42s-.51,1.33-.51,2.16.17,1.54.51,2.16c.34.62.8,1.1,1.37,1.44.57.34,1.22.5,1.95.5Z"/>
      <path class="st0" d="M241.47,146.74c-1.1,0-2.08-.24-2.94-.71-.86-.48-1.55-1.14-2.06-1.99s-.76-1.83-.76-2.94.25-2.11.76-2.95,1.19-1.49,2.06-1.96c.86-.47,1.84-.7,2.94-.7.97,0,1.86.2,2.66.6.8.4,1.44,1.02,1.92,1.85s.72,1.89.72,3.16-.24,2.3-.72,3.14-1.12,1.46-1.92,1.88-1.68.63-2.66.63h0ZM241.73,151.61c-1.04,0-2.05-.15-3.03-.45s-1.77-.73-2.39-1.28l.99-1.62c.53.47,1.18.84,1.95,1.11s1.58.41,2.42.41c1.34,0,2.33-.32,2.96-.96s.94-1.62.94-2.94v-2.46l.21-2.3-.11-2.33v-3.18h1.95v10.05c0,2.05-.5,3.55-1.5,4.52-1,.96-2.46,1.45-4.39,1.45v-.02ZM241.71,144.9c.76,0,1.43-.16,2.01-.48.59-.32,1.04-.77,1.38-1.34.33-.57.5-1.23.5-1.97s-.17-1.41-.5-1.97c-.34-.57-.8-1.01-1.38-1.33s-1.26-.47-2.01-.47-1.43.16-2.02.47c-.59.32-1.06.76-1.39,1.33-.34.57-.5,1.23-.5,1.97s.17,1.41.5,1.97c.33.57.8,1.02,1.39,1.34.59.32,1.27.48,2.02.48Z"/>
      <path class="st0" d="M251.54,147.22v-11.63h1.97v3.16l-.19-.79c.31-.81.84-1.42,1.58-1.84s1.66-.64,2.74-.64v2.04c-.09,0-.17-.02-.25-.02h-.23c-1.1,0-1.97.34-2.61,1.01s-.96,1.65-.96,2.92v5.79h-2.06.01Z"/>
      <path class="st0" d="M262.72,147.36c-.84,0-1.58-.15-2.22-.44-.64-.29-1.12-.7-1.47-1.22-.34-.52-.51-1.11-.51-1.77s.15-1.2.44-1.71c.29-.51.77-.92,1.43-1.23s1.56-.46,2.69-.46h3.6v1.51h-3.51c-1.03,0-1.72.18-2.08.53s-.54.77-.54,1.27c0,.57.22,1.03.66,1.37s1.06.52,1.84.52,1.45-.18,2.02-.53c.58-.35,1-.86,1.25-1.54l.41,1.45c-.27.69-.75,1.23-1.43,1.63-.69.4-1.55.6-2.59.6v.02ZM266.44,147.22v-2.46l-.11-.46v-4.19c0-.89-.25-1.58-.76-2.07s-1.27-.73-2.28-.73c-.67,0-1.33.11-1.97.34s-1.18.53-1.63.91l-.86-1.58c.59-.48,1.29-.85,2.11-1.11.82-.26,1.68-.38,2.58-.38,1.56,0,2.76.39,3.6,1.16s1.26,1.96,1.26,3.55v7.02h-1.95.01Z"/>
      <path class="st0" d="M272.2,147.22v-11.63h1.97v3.09l-.32-.79c.36-.76.91-1.35,1.65-1.78s1.61-.64,2.59-.64c1.08,0,2.02.27,2.81.82s1.3,1.38,1.54,2.49l-.83-.35c.34-.89.94-1.61,1.8-2.15s1.86-.81,3-.81c.91,0,1.72.18,2.42.55s1.24.92,1.64,1.67.59,1.69.59,2.83v6.69h-2.06v-6.45c0-1.13-.26-1.97-.77-2.55-.51-.57-1.24-.85-2.16-.85-.69,0-1.29.15-1.8.44-.51.29-.91.72-1.19,1.3-.28.57-.42,1.28-.42,2.13v5.99h-2.06v-6.45c0-1.13-.25-1.97-.76-2.55-.51-.57-1.23-.85-2.17-.85-.67,0-1.26.15-1.78.44-.51.29-.91.72-1.2,1.3-.29.57-.43,1.28-.43,2.13v5.99h-2.06Z"/>
      <path class="st0" d="M298.16,147.36c-.84,0-1.58-.15-2.22-.44-.63-.29-1.12-.7-1.47-1.22-.34-.52-.51-1.11-.51-1.77s.15-1.2.44-1.71c.29-.51.77-.92,1.43-1.23.67-.31,1.56-.46,2.69-.46h3.6v1.51h-3.51c-1.03,0-1.72.18-2.08.53s-.54.77-.54,1.27c0,.57.22,1.03.67,1.37.44.34,1.06.52,1.84.52s1.45-.18,2.03-.53,1-.86,1.25-1.54l.41,1.45c-.27.69-.75,1.23-1.43,1.63-.69.4-1.55.6-2.59.6v.02ZM301.88,147.22v-2.46l-.11-.46v-4.19c0-.89-.25-1.58-.76-2.07s-1.27-.73-2.28-.73c-.67,0-1.33.11-1.97.34s-1.19.53-1.63.91l-.86-1.58c.59-.48,1.29-.85,2.11-1.11s1.68-.38,2.58-.38c1.56,0,2.76.39,3.6,1.16s1.26,1.96,1.26,3.55v7.02h-1.95.01Z"/>
      <path class="st0" d="M313.7,147.22v-15.36h2.14v15.36h-2.14Z"/>
      <path class="st0" d="M320.04,147.22v-11.63h1.97v3.14l-.32-.83c.37-.76.94-1.35,1.71-1.78s1.67-.64,2.7-.64c.93,0,1.75.18,2.45.55.71.37,1.26.92,1.66,1.67s.6,1.69.6,2.83v6.69h-2.06v-6.45c0-1.13-.27-1.97-.8-2.55-.54-.57-1.29-.85-2.26-.85-.73,0-1.36.15-1.9.44-.54.29-.96.72-1.25,1.3-.29.57-.44,1.28-.44,2.13v5.99h-2.06Z"/>
      <path class="st0" d="M333,137.33v-1.73h7.24v1.73h-7.24ZM338.52,147.36c-1.14,0-2.03-.32-2.66-.95-.63-.63-.94-1.53-.94-2.7v-10.66h2.06v10.57c0,.63.15,1.11.46,1.45s.75.5,1.32.5c.64,0,1.18-.18,1.61-.55l.64,1.51c-.31.28-.69.48-1.12.61-.44.13-.89.2-1.36.2v.02Z"/>
      <path class="st0" d="M348.16,147.36c-1.21,0-2.28-.26-3.2-.77-.92-.51-1.63-1.21-2.14-2.11-.51-.89-.76-1.92-.76-3.07s.25-2.18.74-3.07c.49-.89,1.17-1.59,2.03-2.09s1.84-.76,2.92-.76,2.07.25,2.91.75,1.5,1.19,1.98,2.09.72,1.95.72,3.15c0,.09,0,.19-.01.31,0,.11-.02.22-.03.33h-9.66v-1.51h8.59l-.84.53c.01-.75-.14-1.41-.45-2-.32-.59-.75-1.04-1.3-1.37s-1.19-.49-1.92-.49-1.35.16-1.91.49-.99.79-1.31,1.38-.47,1.27-.47,2.03v.35c0,.77.17,1.47.52,2.07s.84,1.08,1.47,1.42,1.35.5,2.16.5c.67,0,1.28-.12,1.83-.35.55-.23,1.03-.59,1.45-1.05l1.14,1.36c-.51.61-1.15,1.08-1.92,1.41-.76.32-1.62.48-2.56.48h.02Z"/>
      <path class="st0" d="M360.92,146.74c-1.1,0-2.08-.24-2.94-.71-.87-.48-1.55-1.14-2.06-1.99s-.76-1.83-.76-2.94.25-2.11.76-2.95,1.19-1.49,2.06-1.96c.86-.47,1.84-.7,2.94-.7.97,0,1.86.2,2.66.6s1.44,1.02,1.92,1.85.72,1.89.72,3.16-.24,2.3-.72,3.14-1.12,1.46-1.92,1.88c-.8.42-1.69.63-2.66.63h0ZM361.18,151.61c-1.04,0-2.05-.15-3.03-.45s-1.77-.73-2.39-1.28l.99-1.62c.53.47,1.18.84,1.95,1.11.77.27,1.58.41,2.42.41,1.34,0,2.33-.32,2.95-.96.63-.64.94-1.62.94-2.94v-2.46l.21-2.3-.11-2.33v-3.18h1.95v10.05c0,2.05-.5,3.55-1.5,4.52-1,.96-2.46,1.45-4.39,1.45v-.02ZM361.16,144.9c.76,0,1.43-.16,2.01-.48.59-.32,1.05-.77,1.38-1.34.34-.57.5-1.23.5-1.97s-.17-1.41-.5-1.97c-.34-.57-.79-1.01-1.38-1.33s-1.26-.47-2.01-.47-1.43.16-2.02.47-1.06.76-1.39,1.33c-.34.57-.5,1.23-.5,1.97s.17,1.41.5,1.97c.34.57.8,1.02,1.39,1.34.59.32,1.27.48,2.02.48Z"/>
      <path class="st0" d="M370.99,147.22v-11.63h1.97v3.16l-.19-.79c.31-.81.84-1.42,1.59-1.84.74-.42,1.66-.64,2.74-.64v2.04c-.09,0-.17-.02-.25-.02h-.23c-1.1,0-1.97.34-2.61,1.01s-.96,1.65-.96,2.92v5.79h-2.06Z"/>
      <path class="st0" d="M382.16,147.36c-.84,0-1.58-.15-2.22-.44-.64-.29-1.12-.7-1.47-1.22-.34-.52-.52-1.11-.52-1.77s.15-1.2.44-1.71c.29-.51.77-.92,1.44-1.23.66-.31,1.56-.46,2.69-.46h3.6v1.51h-3.51c-1.03,0-1.72.18-2.08.53s-.53.77-.53,1.27c0,.57.22,1.03.66,1.37s1.06.52,1.84.52,1.45-.18,2.02-.53c.58-.35,1-.86,1.25-1.54l.41,1.45c-.27.69-.75,1.23-1.43,1.63-.68.4-1.55.6-2.59.6v.02ZM385.89,147.22v-2.46l-.11-.46v-4.19c0-.89-.25-1.58-.76-2.07s-1.27-.73-2.28-.73c-.67,0-1.33.11-1.97.34s-1.18.53-1.63.91l-.86-1.58c.59-.48,1.29-.85,2.11-1.11s1.68-.38,2.58-.38c1.56,0,2.75.39,3.6,1.16.84.77,1.26,1.96,1.26,3.55v7.02h-1.95.01Z"/>
      <path class="st0" d="M391.65,147.22v-16.28h2.06v16.28h-2.06Z"/>
      <path class="st0" d="M408.08,147.36c-1.1,0-2.08-.25-2.95-.75s-1.54-1.19-2.04-2.08-.75-1.93-.75-3.12.25-2.22.75-3.1,1.18-1.58,2.04-2.07,1.85-.75,2.95-.75c.95,0,1.82.22,2.59.66s1.39,1.1,1.85,1.97c.46.88.69,1.97.69,3.29s-.22,2.41-.67,3.29c-.45.88-1.06,1.54-1.83,1.98-.77.45-1.65.67-2.63.67h0ZM408.25,145.51c.71,0,1.36-.17,1.94-.5s1.03-.81,1.37-1.44.5-1.34.5-2.16-.17-1.55-.5-2.16-.79-1.08-1.37-1.42-1.22-.5-1.94-.5-1.38.17-1.95.5-1.03.81-1.37,1.42-.51,1.33-.51,2.16.17,1.54.51,2.16.8,1.1,1.37,1.44,1.22.5,1.95.5ZM412.12,147.22v-3.14l.13-2.7-.21-2.7v-7.75h2.06v16.28h-1.98Z"/>
      <path class="st0" d="M423.04,147.36c-1.21,0-2.28-.26-3.2-.77-.92-.51-1.63-1.21-2.14-2.11-.5-.89-.76-1.92-.76-3.07s.25-2.18.74-3.07c.49-.89,1.17-1.59,2.04-2.09.86-.5,1.84-.76,2.92-.76s2.07.25,2.91.75,1.5,1.19,1.98,2.09.72,1.95.72,3.15c0,.09,0,.19-.01.31,0,.11-.02.22-.03.33h-9.66v-1.51h8.59l-.84.53c.01-.75-.14-1.41-.45-2s-.75-1.04-1.29-1.37c-.55-.33-1.19-.49-1.92-.49s-1.35.16-1.9.49c-.56.33-.99.79-1.31,1.38-.32.59-.47,1.27-.47,2.03v.35c0,.77.17,1.47.52,2.07s.84,1.08,1.47,1.42,1.35.5,2.16.5c.67,0,1.28-.12,1.83-.35.55-.23,1.03-.59,1.45-1.05l1.14,1.36c-.52.61-1.15,1.08-1.92,1.41-.76.32-1.62.48-2.56.48h0Z"/>
      <path class="st0" d="M436.68,147.22v-15.36h3.47v15.36h-3.47Z"/>
      <path class="st0" d="M443.47,147.22v-11.8h3.19v3.27l-.6-.99c.41-.79,1.01-1.4,1.78-1.82.77-.42,1.65-.64,2.63-.64.91,0,1.73.19,2.45.56s1.29.94,1.7,1.71.62,1.75.62,2.95v6.76h-3.34v-6.23c0-.95-.2-1.65-.61-2.11-.41-.45-.98-.68-1.72-.68-.53,0-1,.11-1.42.34s-.75.57-.99,1.04c-.24.47-.35,1.07-.35,1.8v5.83h-3.34Z"/>
      <path class="st0" d="M456.9,138.05v-2.63h7.99v2.63h-7.99ZM462.98,147.4c-1.36,0-2.41-.36-3.17-1.06-.76-.71-1.14-1.77-1.14-3.17v-10.35h3.34v10.31c0,.5.13.88.39,1.15.26.27.6.41,1.05.41.53,0,.98-.15,1.35-.44l.9,2.42c-.34.25-.75.44-1.23.56-.48.13-.98.19-1.49.19v-.02Z"/>
      <path class="st0" d="M472.94,147.4c-1.31,0-2.47-.26-3.46-.79s-1.76-1.24-2.3-2.16c-.54-.91-.81-1.96-.81-3.13s.27-2.23.8-3.15,1.27-1.63,2.19-2.15c.93-.52,1.98-.78,3.15-.78s2.15.25,3.05.73c.91.49,1.62,1.19,2.15,2.11.53.91.79,2.01.79,3.28,0,.13,0,.28-.02.45s-.03.33-.04.47h-9.36v-2h7.6l-1.29.59c0-.61-.12-1.15-.36-1.6-.24-.45-.58-.81-1.01-1.06s-.93-.38-1.5-.38-1.07.13-1.51.38-.77.61-1.02,1.07c-.24.46-.36,1.01-.36,1.63v.53c0,.64.14,1.21.42,1.7.28.49.67.86,1.18,1.12s1.1.38,1.79.38c.61,0,1.15-.09,1.62-.28.46-.19.89-.48,1.27-.86l1.78,1.97c-.53.61-1.19,1.09-1.99,1.42s-1.72.49-2.76.49v.02Z"/>
      <path class="st0" d="M480.73,147.22v-11.8h3.19v3.33l-.45-.96c.34-.83.89-1.47,1.65-1.9.76-.43,1.68-.65,2.76-.65v3.16c-.14-.02-.27-.03-.38-.03s-.24,0-.36,0c-.91,0-1.65.27-2.22.8s-.85,1.37-.85,2.49v5.57h-3.34Z"/>
      <path class="st0" d="M489.88,147.22v-11.8h3.19v3.27l-.6-.99c.41-.79,1-1.4,1.78-1.82.77-.42,1.65-.64,2.63-.64.91,0,1.73.19,2.45.56s1.29.94,1.7,1.71.62,1.75.62,2.95v6.76h-3.34v-6.23c0-.95-.2-1.65-.61-2.11-.41-.45-.98-.68-1.73-.68-.53,0-1,.11-1.42.34s-.75.57-.99,1.04c-.24.47-.35,1.07-.35,1.8v5.83h-3.34,0Z"/>
      <path class="st0" d="M508.23,147.4c-.9,0-1.67-.16-2.31-.47-.64-.31-1.14-.74-1.48-1.28s-.51-1.15-.51-1.82.17-1.31.5-1.84c.34-.53.87-.94,1.6-1.24s1.68-.45,2.85-.45h3.06v2h-2.7c-.79,0-1.33.13-1.62.4-.29.26-.44.59-.44.99,0,.44.17.79.5,1.04.33.26.8.38,1.38.38s1.06-.14,1.5-.41.76-.67.96-1.2l.51,1.58c-.24.76-.68,1.34-1.33,1.73-.64.4-1.47.59-2.48.59h.01ZM511.74,147.22v-2.3l-.21-.5v-4.12c0-.73-.22-1.3-.65-1.71-.44-.41-1.1-.61-2-.61-.61,0-1.22.1-1.81.29s-1.1.46-1.51.8l-1.2-2.39c.63-.45,1.39-.8,2.27-1.05s1.78-.37,2.7-.37c1.76,0,3.12.42,4.09,1.27s1.46,2.17,1.46,3.97v6.73h-3.14Z"/>
      <path class="st0" d="M523.54,147.4c-1.24,0-2.35-.26-3.32-.78-.97-.52-1.73-1.24-2.28-2.16-.55-.92-.82-1.97-.82-3.14s.27-2.23.82-3.15,1.31-1.63,2.28-2.15c.97-.52,2.08-.78,3.32-.78s2.27.26,3.17.78c.9.52,1.57,1.26,1.99,2.23l-2.59,1.43c-.3-.56-.67-.96-1.12-1.23-.45-.26-.94-.4-1.47-.4-.57,0-1.08.13-1.54.4-.46.26-.82.64-1.08,1.12s-.4,1.07-.4,1.76.13,1.27.4,1.76.63.85,1.08,1.12c.46.26.97.4,1.54.4.53,0,1.02-.13,1.47-.38.45-.26.83-.67,1.12-1.24l2.59,1.45c-.43.95-1.09,1.69-1.99,2.2-.9.52-1.96.78-3.17.78v-.02Z"/>
      <path class="st0" d="M532.21,133.78c-.61,0-1.11-.18-1.5-.55-.39-.37-.58-.82-.58-1.36s.19-.99.58-1.36c.38-.37.88-.55,1.5-.55s1.12.17,1.5.52.58.79.58,1.33c0,.57-.19,1.04-.57,1.42-.38.37-.88.56-1.51.56h0ZM530.55,147.22v-11.8h3.34v11.8h-3.34Z"/>
      <path class="st0" d="M542.47,147.4c-1.23,0-2.32-.26-3.26-.79-.95-.53-1.7-1.24-2.25-2.16-.55-.91-.82-1.96-.82-3.13s.27-2.23.82-3.15,1.3-1.63,2.25-2.15c.95-.52,2.04-.78,3.26-.78s2.3.26,3.25.78c.96.52,1.71,1.23,2.25,2.14s.81,1.96.81,3.16-.27,2.21-.81,3.13-1.29,1.63-2.25,2.16-2.04.79-3.25.79h0ZM542.47,144.59c.56,0,1.06-.13,1.5-.4.44-.26.79-.64,1.05-1.13s.38-1.07.38-1.74-.13-1.27-.38-1.76-.61-.85-1.05-1.12c-.44-.26-.94-.4-1.5-.4s-1.06.13-1.5.4c-.44.26-.8.64-1.06,1.12s-.4,1.07-.4,1.76.13,1.26.4,1.74.62.87,1.06,1.13c.44.26.94.4,1.5.4ZM540.48,133.91l2.89-3.16h3.6l-3.88,3.16h-2.61Z"/>
      <path class="st0" d="M551.01,147.22v-11.8h3.19v3.27l-.6-.99c.41-.79,1.01-1.4,1.78-1.82.77-.42,1.65-.64,2.63-.64.91,0,1.73.19,2.45.56.72.37,1.29.94,1.7,1.71.41.77.62,1.75.62,2.95v6.76h-3.34v-6.23c0-.95-.21-1.65-.61-2.11-.41-.45-.98-.68-1.72-.68-.53,0-1,.11-1.42.34s-.75.57-.99,1.04c-.24.47-.35,1.07-.35,1.8v5.83h-3.34Z"/>
      <path class="st0" d="M572.11,147.22v-15.36h6.81c1.63,0,3.06.32,4.3.96s2.21,1.52,2.91,2.67c.7,1.14,1.05,2.49,1.05,4.06s-.35,2.9-1.05,4.05-1.67,2.04-2.91,2.68-2.68.95-4.3.95h-6.81ZM575.58,144.31h3.17c1,0,1.87-.2,2.6-.58s1.31-.94,1.71-1.66c.41-.72.61-1.56.61-2.52s-.2-1.82-.61-2.54c-.41-.71-.98-1.26-1.71-1.65s-1.6-.58-2.6-.58h-3.17v9.52h0Z"/>
      <path class="st0" d="M595.04,147.4c-1.23,0-2.32-.26-3.27-.79s-1.7-1.24-2.25-2.16c-.55-.91-.82-1.96-.82-3.13s.28-2.23.82-3.15c.55-.92,1.3-1.63,2.25-2.15.95-.52,2.04-.78,3.27-.78s2.3.26,3.25.78c.96.52,1.71,1.23,2.25,2.14s.81,1.96.81,3.16-.27,2.21-.81,3.13-1.29,1.63-2.25,2.16-2.04.79-3.25.79h0ZM595.04,144.59c.56,0,1.06-.13,1.5-.4.44-.26.79-.64,1.05-1.13s.39-1.07.39-1.74-.13-1.27-.39-1.76c-.26-.48-.6-.85-1.05-1.12-.44-.26-.94-.4-1.5-.4s-1.06.13-1.5.4c-.44.26-.8.64-1.06,1.12s-.4,1.07-.4,1.76.13,1.26.4,1.74.62.87,1.06,1.13c.44.26.94.4,1.5.4Z"/>
      <path class="st0" d="M603.59,147.22v-11.8h3.19v3.22l-.6-.94c.4-.8.97-1.42,1.7-1.83.74-.42,1.58-.63,2.52-.63,1.06,0,1.98.28,2.77.82.79.55,1.32,1.39,1.58,2.51l-1.18-.33c.39-.92,1-1.65,1.85-2.19.85-.54,1.82-.81,2.92-.81.91,0,1.72.19,2.43.56s1.26.94,1.67,1.71.61,1.75.61,2.95v6.76h-3.34v-6.23c0-.95-.19-1.65-.58-2.11-.39-.45-.93-.68-1.63-.68-.49,0-.92.11-1.31.34-.38.23-.68.57-.9,1.02s-.32,1.03-.32,1.73v5.92h-3.34v-6.23c0-.95-.19-1.65-.57-2.11-.38-.45-.92-.68-1.62-.68-.49,0-.92.11-1.31.34-.38.23-.68.57-.9,1.02s-.32,1.03-.32,1.73v5.92h-3.34l.02.02Z"/>
      <path class="st0" d="M627.72,133.78c-.61,0-1.11-.18-1.5-.55s-.58-.82-.58-1.36.2-.99.58-1.36.88-.55,1.5-.55,1.11.17,1.5.52.58.79.58,1.33c0,.57-.19,1.04-.57,1.42-.38.37-.88.56-1.51.56h0ZM626.05,147.22v-11.8h3.34v11.8h-3.34Z"/>
      <path class="st0" d="M638.06,147.4c-1.24,0-2.35-.26-3.32-.78-.97-.52-1.73-1.24-2.28-2.16-.55-.92-.82-1.97-.82-3.14s.27-2.23.82-3.15,1.31-1.63,2.28-2.15c.97-.52,2.08-.78,3.32-.78s2.27.26,3.17.78c.9.52,1.56,1.26,1.99,2.23l-2.59,1.43c-.3-.56-.67-.96-1.12-1.23-.45-.26-.94-.4-1.47-.4-.57,0-1.08.13-1.54.4-.46.26-.82.64-1.08,1.12s-.4,1.07-.4,1.76.13,1.27.4,1.76c.26.48.63.85,1.08,1.12.46.26.97.4,1.54.4.53,0,1.02-.13,1.47-.38.45-.26.82-.67,1.12-1.24l2.59,1.45c-.43.95-1.09,1.69-1.99,2.2-.9.52-1.96.78-3.17.78v-.02Z"/>
      <path class="st0" d="M646.74,133.78c-.61,0-1.11-.18-1.5-.55s-.58-.82-.58-1.36.2-.99.58-1.36.88-.55,1.5-.55,1.11.17,1.5.52.58.79.58,1.33c0,.57-.19,1.04-.57,1.42-.38.37-.88.56-1.51.56h0ZM645.07,147.22v-11.8h3.34v11.8h-3.34Z"/>
      <path class="st0" d="M651.51,147.22v-16.28h3.34v16.28h-3.34Z"/>
      <path class="st0" d="M659.63,133.78c-.61,0-1.11-.18-1.5-.55-.38-.37-.58-.82-.58-1.36s.19-.99.58-1.36.88-.55,1.5-.55,1.11.17,1.5.52c.38.34.58.79.58,1.33,0,.57-.19,1.04-.57,1.42-.38.37-.88.56-1.51.56h0ZM657.96,147.22v-11.8h3.34v11.8h-3.34Z"/>
      <path class="st0" d="M667.96,147.4c-.9,0-1.67-.16-2.31-.47s-1.13-.74-1.47-1.28c-.34-.54-.52-1.15-.52-1.82s.17-1.31.5-1.84.87-.94,1.59-1.24c.73-.3,1.68-.45,2.85-.45h3.06v2h-2.7c-.79,0-1.33.13-1.62.4-.29.26-.44.59-.44.99,0,.44.17.79.5,1.04.33.26.8.38,1.38.38s1.06-.14,1.5-.41.76-.67.96-1.2l.51,1.58c-.24.76-.69,1.34-1.33,1.73s-1.47.59-2.48.59h.02ZM671.47,147.22v-2.3l-.21-.5v-4.12c0-.73-.22-1.3-.65-1.71-.44-.41-1.1-.61-2-.61-.61,0-1.22.1-1.81.29-.59.2-1.1.46-1.51.8l-1.2-2.39c.63-.45,1.38-.8,2.27-1.05s1.78-.37,2.7-.37c1.76,0,3.12.42,4.09,1.27.97.85,1.46,2.17,1.46,3.97v6.73h-3.14Z"/>
      <path class="st0" d="M677.62,147.22v-11.8h3.19v3.33l-.45-.96c.34-.83.89-1.47,1.65-1.9s1.68-.65,2.76-.65v3.16c-.14-.02-.27-.03-.39-.03-.11,0-.24,0-.36,0-.91,0-1.65.27-2.22.8-.56.53-.84,1.37-.84,2.49v5.57h-3.34Z"/>
      <path class="st0" d="M688.43,133.78c-.61,0-1.11-.18-1.5-.55s-.58-.82-.58-1.36.19-.99.58-1.36.89-.55,1.5-.55,1.11.17,1.5.52c.39.34.58.79.58,1.33,0,.57-.19,1.04-.57,1.42-.38.37-.88.56-1.51.56h0ZM686.76,147.22v-11.8h3.34v11.8h-3.34Z"/>
      <path class="st0" d="M696.76,147.4c-.9,0-1.67-.16-2.31-.47s-1.14-.74-1.48-1.28c-.34-.54-.52-1.15-.52-1.82s.17-1.31.5-1.84.87-.94,1.59-1.24c.73-.3,1.68-.45,2.85-.45h3.06v2h-2.7c-.79,0-1.33.13-1.62.4-.29.26-.44.59-.44.99,0,.44.17.79.5,1.04s.8.38,1.38.38,1.06-.14,1.5-.41.76-.67.96-1.2l.51,1.58c-.24.76-.68,1.34-1.33,1.73-.64.4-1.47.59-2.48.59h.03ZM700.27,147.22v-2.3l-.21-.5v-4.12c0-.73-.22-1.3-.65-1.71-.44-.41-1.1-.61-2-.61-.61,0-1.22.1-1.81.29-.59.2-1.1.46-1.51.8l-1.2-2.39c.63-.45,1.38-.8,2.27-1.05s1.78-.37,2.7-.37c1.76,0,3.12.42,4.09,1.27.97.85,1.46,2.17,1.46,3.97v6.73h-3.14Z"/>
    </g>
    <g>
      <path class="st0" d="M202.65,70.22v-37.34h6.94v37.34h-6.94ZM209,54.21v-5.92h20.44v5.92h-20.44ZM228.91,70.22v-37.34h6.94v37.34h-6.94Z"/>
      <path class="st0" d="M263.38,70.75c-2.92,0-5.6-.48-8.06-1.44-2.45-.96-4.59-2.3-6.4-4.03-1.82-1.72-3.22-3.75-4.22-6.08s-1.49-4.88-1.49-7.65.5-5.33,1.49-7.66c1-2.33,2.4-4.35,4.22-6.08,1.81-1.72,3.95-3.07,6.4-4.03,2.46-.96,5.12-1.44,8.01-1.44s5.59.48,8.03,1.44,4.56,2.3,6.38,4.03c1.81,1.73,3.22,3.75,4.22,6.08.99,2.33,1.49,4.88,1.49,7.66s-.5,5.33-1.49,7.68c-1,2.35-2.4,4.37-4.22,6.08s-3.94,3.04-6.38,4-5.1,1.44-7.98,1.44ZM263.33,64.67c1.88,0,3.63-.32,5.23-.96s2.99-1.55,4.16-2.75c1.17-1.19,2.09-2.58,2.75-4.16.66-1.58.99-3.33.99-5.25s-.33-3.67-.99-5.25c-.66-1.58-1.57-2.97-2.75-4.16-1.17-1.19-2.56-2.11-4.16-2.75s-3.34-.96-5.23-.96-3.62.32-5.2.96c-1.58.64-2.97,1.56-4.16,2.75s-2.12,2.58-2.78,4.16c-.66,1.58-.99,3.33-.99,5.25s.33,3.63.99,5.23,1.57,3,2.75,4.19,2.56,2.11,4.16,2.75c1.6.64,3.34.96,5.23.96h0Z"/>
      <path class="st0" d="M302.39,70.75c-2.92,0-5.71-.42-8.38-1.25-2.67-.84-4.78-1.91-6.35-3.23l2.4-5.39c1.49,1.17,3.34,2.15,5.55,2.93s4.46,1.17,6.78,1.17c1.96,0,3.54-.21,4.75-.64s2.1-1,2.67-1.73.85-1.55.85-2.48c0-1.14-.41-2.05-1.23-2.75-.82-.69-1.88-1.24-3.18-1.65s-2.74-.79-4.32-1.15-3.17-.77-4.75-1.25-3.02-1.1-4.32-1.87c-1.3-.76-2.36-1.79-3.18-3.07s-1.23-2.92-1.23-4.91.54-3.89,1.63-5.58c1.08-1.69,2.74-3.04,4.96-4.06,2.22-1.01,5.04-1.52,8.46-1.52,2.24,0,4.46.29,6.67.85s4.13,1.39,5.76,2.45l-2.19,5.39c-1.67-.99-3.4-1.73-5.18-2.21s-3.49-.72-5.12-.72c-1.92,0-3.48.23-4.67.69s-2.06,1.07-2.61,1.81c-.55.75-.83,1.6-.83,2.56,0,1.14.4,2.05,1.2,2.75.8.69,1.85,1.24,3.15,1.63s2.75.77,4.35,1.15c1.6.37,3.19.79,4.78,1.26,1.58.46,3.02,1.07,4.32,1.81,1.3.75,2.35,1.76,3.15,3.04.8,1.28,1.2,2.9,1.2,4.85s-.54,3.83-1.63,5.52-2.75,3.04-4.99,4.06c-2.24,1.01-5.07,1.52-8.48,1.52v.02Z"/>
      <path class="st0" d="M324.37,70.22v-37.34h15.37c3.31,0,6.14.53,8.51,1.6s4.19,2.6,5.47,4.59,1.92,4.36,1.92,7.1-.64,5.1-1.92,7.1c-1.28,1.99-3.1,3.52-5.47,4.59s-5.2,1.6-8.51,1.6h-11.53l3.09-3.25v14.03h-6.94v-.02ZM331.31,56.93l-3.09-3.36h11.21c3.06,0,5.36-.65,6.91-1.94s2.32-3.12,2.32-5.47-.77-4.21-2.32-5.5c-1.55-1.28-3.85-1.92-6.91-1.92h-11.21l3.09-3.41v21.6Z"/>
      <path class="st0" d="M363.12,70.22v-37.34h6.94v37.34h-6.94Z"/>
      <path class="st0" d="M387.71,70.22v-31.47h-12.38v-5.87h31.7v5.87h-12.38v31.47h-6.94Z"/>
      <path class="st0" d="M406.98,70.22l16.81-37.34h6.83l16.86,37.34h-7.26l-14.46-33.66h2.77l-14.41,33.66h-7.15.01ZM414.72,61.58l1.87-5.44h20.17l1.87,5.44h-23.91Z"/>
      <path class="st0" d="M452.23,70.22v-37.34h6.94v31.47h19.53v5.87h-26.47Z"/>
      <path class="st0" d="M484.19,70.22v-37.34h6.94v37.34h-6.94Z"/>
      <path class="st0" d="M498.39,70.22v-4.64l24.12-29.45.8,2.61h-24.55v-5.87h30.79v4.64l-24.12,29.45-.85-2.61h25.67v5.87s-31.86,0-31.86,0Z"/>
      <path class="st0" d="M531.31,70.22l16.81-37.34h6.83l16.86,37.34h-7.26l-14.46-33.66h2.77l-14.41,33.66h-7.15.01ZM539.05,61.58l1.87-5.44h20.17l1.87,5.44h-23.91Z"/>
      <path class="st0" d="M593.85,70.75c-2.85,0-5.49-.47-7.92-1.41-2.44-.94-4.55-2.28-6.35-4s-3.2-3.76-4.19-6.11c-1-2.35-1.5-4.91-1.5-7.68s.5-5.34,1.5-7.68c.99-2.35,2.4-4.38,4.22-6.11,1.81-1.72,3.93-3.06,6.35-4s5.07-1.42,7.95-1.42c3.06,0,5.85.53,8.38,1.57,2.53,1.05,4.66,2.61,6.41,4.67l-4.48,4.21c-1.35-1.46-2.86-2.55-4.54-3.28s-3.49-1.09-5.44-1.09-3.74.32-5.36.96-3.02,1.55-4.22,2.72c-1.19,1.18-2.12,2.56-2.78,4.16s-.99,3.36-.99,5.28.33,3.68.99,5.28,1.58,2.99,2.78,4.16,2.6,2.08,4.22,2.72,3.41.96,5.36.96,3.77-.37,5.44-1.1c1.67-.73,3.18-1.84,4.54-3.33l4.48,4.27c-1.74,2.03-3.88,3.57-6.41,4.64-2.52,1.07-5.34,1.6-8.43,1.6h-.01Z"/>
      <path class="st0" d="M614.87,70.22v-37.34h6.94v37.34h-6.94Z"/>
      <path class="st0" d="M649.4,70.75c-2.92,0-5.6-.48-8.06-1.44s-4.59-2.3-6.4-4.03c-1.81-1.72-3.22-3.75-4.22-6.08s-1.49-4.88-1.49-7.65.5-5.33,1.49-7.66,2.4-4.35,4.22-6.08c1.81-1.72,3.95-3.07,6.4-4.03s5.12-1.44,8-1.44,5.59.48,8.03,1.44,4.56,2.3,6.38,4.03c1.81,1.73,3.22,3.75,4.22,6.08s1.49,4.88,1.49,7.66-.5,5.33-1.49,7.68-2.4,4.37-4.22,6.08-3.94,3.04-6.38,4-5.1,1.44-7.98,1.44h0ZM649.35,64.67c1.89,0,3.63-.32,5.23-.96s2.99-1.55,4.16-2.75c1.18-1.19,2.09-2.58,2.75-4.16.66-1.58.99-3.33.99-5.25s-.33-3.67-.99-5.25-1.57-2.97-2.75-4.16c-1.17-1.19-2.56-2.11-4.16-2.75s-3.34-.96-5.23-.96-3.62.32-5.2.96-2.97,1.56-4.16,2.75-2.12,2.58-2.77,4.16c-.66,1.58-.99,3.33-.99,5.25s.33,3.63.99,5.23,1.57,3,2.75,4.19,2.56,2.11,4.16,2.75c1.6.64,3.34.96,5.23.96h0ZM644.87,29.84l7.2-7.31h7.85l-9.29,7.31h-5.76Z"/>
      <path class="st0" d="M676.83,70.22v-37.34h5.71l23.43,28.75h-2.83v-28.75h6.88v37.34h-5.71l-23.43-28.75h2.83v28.75h-6.88Z"/>
      <path class="st1" d="M201.37,118.65v-37.34h17.66c4.13,0,7.76.76,10.89,2.29s5.58,3.68,7.34,6.45,2.64,6.08,2.64,9.92-.88,7.1-2.64,9.9-4.21,4.95-7.34,6.48c-3.13,1.53-6.76,2.29-10.89,2.29h-17.66ZM211.94,110.22h6.67c2.13,0,3.99-.4,5.58-1.2,1.58-.8,2.82-1.97,3.71-3.52.89-1.55,1.33-3.39,1.33-5.52s-.45-4.02-1.33-5.55c-.89-1.53-2.13-2.69-3.71-3.49-1.58-.8-3.44-1.2-5.58-1.2h-6.67v20.48h0Z"/>
      <path class="st1" d="M264.29,119.4c-2.99,0-5.75-.48-8.27-1.44-2.53-.96-4.72-2.32-6.59-4.08s-3.32-3.81-4.35-6.16-1.55-4.93-1.55-7.73.52-5.39,1.55-7.74,2.48-4.4,4.35-6.16,4.06-3.12,6.59-4.08c2.52-.96,5.28-1.44,8.27-1.44s5.79.48,8.3,1.44c2.51.96,4.69,2.32,6.54,4.08s3.3,3.81,4.35,6.16c1.05,2.35,1.57,4.93,1.57,7.74s-.52,5.4-1.57,7.76c-1.05,2.36-2.5,4.42-4.35,6.16-1.85,1.74-4.03,3.09-6.54,4.06-2.51.96-5.27,1.44-8.3,1.44h0ZM264.29,110.65c1.42,0,2.75-.25,3.98-.75s2.29-1.22,3.2-2.16,1.62-2.07,2.13-3.39c.52-1.31.77-2.77.77-4.37s-.26-3.1-.77-4.4c-.52-1.3-1.23-2.42-2.13-3.36-.91-.94-1.97-1.66-3.2-2.16s-2.55-.75-3.98-.75-2.75.25-3.98.75-2.29,1.22-3.2,2.16-1.62,2.07-2.13,3.36c-.52,1.3-.77,2.77-.77,4.4s.26,3.06.77,4.37c.51,1.32,1.23,2.44,2.13,3.39s1.97,1.66,3.2,2.16,2.55.75,3.98.75Z"/>
      <path class="st1" d="M290.59,118.65v-37.34h8.7l15.48,25.39h-4.59l15.05-25.39h8.7l.11,37.34h-9.71l-.11-22.56h1.66l-11.26,18.89h-4.7l-11.58-18.89h2.03v22.56h-9.78Z"/>
      <path class="st1" d="M341.5,118.65v-37.34h10.57v37.34s-10.57,0-10.57,0Z"/>
      <path class="st1" d="M378.21,119.4c-2.95,0-5.68-.47-8.19-1.41s-4.68-2.29-6.51-4.03-3.26-3.8-4.29-6.16c-1.03-2.36-1.55-4.97-1.55-7.81s.52-5.45,1.55-7.82c1.03-2.36,2.46-4.42,4.29-6.16,1.83-1.74,4-3.08,6.51-4.03,2.51-.94,5.24-1.41,8.19-1.41,3.45,0,6.54.6,9.26,1.81s4.99,2.95,6.8,5.23l-6.72,6.08c-1.21-1.42-2.54-2.51-3.98-3.25-1.44-.75-3.05-1.12-4.83-1.12-1.53,0-2.93.25-4.22.75-1.28.5-2.37,1.22-3.28,2.16s-1.62,2.07-2.13,3.39c-.52,1.32-.77,2.78-.77,4.38s.26,3.06.77,4.37c.51,1.32,1.23,2.44,2.13,3.39.91.94,2,1.66,3.28,2.16s2.69.75,4.22.75c1.78,0,3.39-.37,4.83-1.12,1.44-.75,2.77-1.83,3.98-3.25l6.72,6.08c-1.82,2.24-4.08,3.98-6.8,5.2s-5.81,1.84-9.26,1.84v-.02Z"/>
      <path class="st1" d="M398.55,118.65v-37.34h10.57v37.34s-10.57,0-10.57,0Z"/>
      <path class="st1" d="M416.64,118.65v-37.34h10.57v28.96h17.82v8.38s-28.39,0-28.39,0Z"/>
      <path class="st1" d="M449.19,118.65v-37.34h10.57v37.34s-10.57,0-10.57,0Z"/>
      <path class="st1" d="M462.79,118.65l16.49-37.34h10.41l16.54,37.34h-10.99l-12.91-32.17h4.16l-12.91,32.17h-10.79ZM471.81,111.4l2.72-7.79h18.25l2.72,7.79h-23.69Z"/>
      <path class="st1" d="M509.22,118.65v-37.34h16.7c5.44,0,9.63,1.24,12.57,3.71s4.4,5.84,4.4,10.11c0,2.81-.68,5.24-2.03,7.28-1.35,2.05-3.26,3.61-5.74,4.69-2.47,1.09-5.42,1.63-8.83,1.63h-11.21l4.7-4.43v14.35h-10.57.01ZM519.78,105.42l-4.7-4.85h10.57c2.21,0,3.85-.48,4.94-1.44,1.08-.96,1.63-2.29,1.63-4s-.54-3.09-1.63-4.06c-1.09-.96-2.73-1.44-4.94-1.44h-10.57l4.7-4.85v20.64ZM532.32,118.65l-9.29-13.6h11.26l9.34,13.6h-11.31Z"/>
      <path class="st1" d="M548.71,118.65v-37.34h10.57v37.34s-10.57,0-10.57,0Z"/>
      <path class="st1" d="M562.31,118.65l16.49-37.34h10.41l16.54,37.34h-10.99l-12.91-32.17h4.16l-12.91,32.17h-10.79ZM571.33,111.4l2.72-7.79h18.25l2.72,7.79h-23.69,0Z"/>
    </g>
  </g>
</svg>