<?xml version="1.0" encoding="UTF-8"?>
<svg id="Capa_1" xmlns="http://www.w3.org/2000/svg" version="1.1" viewBox="0 0 64 64">
  <!-- Generator: Adobe Illustrator 30.0.0, SVG Export Plug-In . SVG Version: 2.1.1 Build 123)  -->
  <defs>
    <style>
      .st0 {
        fill: #35b1e5;
      }
    </style>
  </defs>
  <path class="st0" d="M49.39,34.49c2.78-1.56,4.67-4.53,4.67-7.94,0-5.01-4.08-9.09-9.09-9.09s-9.09,4.08-9.09,9.09c0,3.41,1.89,6.39,4.68,7.94-2.5.74-4.78,2.09-6.64,3.98-2.12-2.27-4.82-3.99-7.88-4.9,3.16-1.77,5.31-5.15,5.31-9.02,0-5.7-4.63-10.33-10.33-10.33s-10.33,4.63-10.33,10.33c0,3.87,2.15,7.25,5.31,9.02-7.3,2.17-12.64,8.93-12.64,16.92,0,.57.46,1.02,1.02,1.02s1.02-.46,1.02-1.02c0-8.61,7-15.61,15.61-15.61,4.83,0,9.15,2.21,12.02,5.66.02.02.04.05.06.07,2.21,2.69,3.53,6.13,3.53,9.88,0,.57.46,1.02,1.02,1.02s1.02-.46,1.02-1.02c0-4-1.35-7.67-3.6-10.64,2.58-2.68,6.12-4.22,9.88-4.22,7.57,0,13.73,6.16,13.73,13.73,0,.5.4.9.9.9s.9-.4.9-.9c0-7.03-4.7-12.98-11.12-14.88ZM12.75,24.55c0-4.57,3.72-8.28,8.28-8.28s8.28,3.72,8.28,8.28-3.72,8.28-8.28,8.28-8.28-3.72-8.28-8.28ZM37.68,26.55c0-4.02,3.27-7.29,7.29-7.29s7.29,3.27,7.29,7.29-3.27,7.29-7.29,7.29-7.29-3.27-7.29-7.29Z"/>
</svg>