<?xml version="1.0" encoding="UTF-8"?>
<svg id="Capa_1" xmlns="http://www.w3.org/2000/svg" version="1.1" viewBox="0 0 64 64">
  <!-- Generator: Adobe Illustrator 30.0.0, SVG Export Plug-In . SVG Version: 2.1.1 Build 123)  -->
  <defs>
    <style>
      .st0 {
        fill: #35b1e5;
      }
    </style>
  </defs>
  <path class="st0" d="M56.28,29.84c-.15-.25-.4-.41-.68-.44-2.94-.3-5.57-.28-7.96.09.11-2.86-.35-5.51-.78-7.97-.17-.96-.33-1.91-.46-2.84-.04-.27-.19-.5-.42-.65-.23-.14-.51-.17-.77-.08-1.94.68-3.94,1.48-5.84,2.54-1.17-3.67-3.28-6.82-5.47-10.08-.38-.56-.76-1.13-1.14-1.71-.33-.5-1.17-.5-1.5,0-.38.58-.76,1.14-1.14,1.7-2.19,3.27-4.3,6.41-5.47,10.08-1.91-1.06-3.91-1.86-5.84-2.54-.26-.09-.54-.06-.77.08-.23.14-.39.38-.42.65-.13.94-.29,1.88-.46,2.84-.43,2.46-.89,5.11-.78,7.97-2.39-.36-5.01-.39-7.96-.08-.28.03-.54.19-.68.44-.15.25-.17.55-.05.81.42,1,.81,2.2,1.22,3.47,1.22,3.82,2.74,8.57,6.68,12.51,1.3,1.3,2.76,2.31,4.31,3.06h-4.27c-.5,0-.9.4-.9.9s.4.9.9.9h32.8c.5,0,.9-.4.9-.9s-.4-.9-.9-.9h-4.27c1.55-.75,3.02-1.77,4.31-3.06,3.94-3.94,5.46-8.69,6.68-12.51.41-1.27.79-2.48,1.21-3.47.11-.26.09-.56-.05-.81ZM44.77,20.02c.1.6.2,1.2.31,1.81.45,2.57.91,5.2.74,8.01-2.65.63-4.99,1.74-7.12,3.36,1.04-2.01,1.59-4.28,1.59-6.7,0-1.5-.17-2.9-.46-4.23,1.57-.9,3.24-1.63,4.93-2.25ZM25.78,23.3c2.07,1.46,3.88,3.34,5.21,5.89-.15.32-.3.64-.43.98-.74,1.85-1.06,3.76-1.01,5.64-2.58-2.35-4.06-5.64-4.06-9.31,0-1.12.1-2.19.28-3.2ZM38.5,26.5c0,3.67-1.48,6.96-4.06,9.31.06-1.88-.27-3.79-1.01-5.64-.14-.34-.28-.66-.43-.98,1.34-2.55,3.15-4.43,5.21-5.89.18,1.01.28,2.08.28,3.2ZM32.5,37.26c-.17.1-.32.22-.5.32-.18-.1-.33-.22-.5-.32-.3-1.9-.14-3.87.5-5.77.64,1.91.8,3.88.5,5.77ZM29.83,43.11c-.12.15-.24.3-.37.44-4.5-.61-8.23-3.6-10.02-8.09-.51-1.27-.84-2.5-1.04-3.7,2.94.81,5.44,2.28,7.67,4.47,1.96,1.96,3.24,4.36,3.77,6.88ZM37.93,36.24c2.23-2.19,4.74-3.66,7.68-4.47-.2,1.19-.53,2.42-1.04,3.7-1.79,4.48-5.52,7.48-10.02,8.09-.13-.14-.25-.29-.37-.44.53-2.52,1.81-4.92,3.76-6.87ZM31.6,11.41c.13-.2.26-.39.4-.59.13.2.26.39.4.59,2.28,3.39,4.33,6.46,5.38,10.03-2.21,1.45-4.22,3.34-5.78,5.88-1.55-2.54-3.57-4.42-5.78-5.88,1.05-3.57,3.1-6.64,5.38-10.03ZM18.92,21.83c.11-.61.21-1.22.31-1.81,1.69.63,3.36,1.35,4.94,2.25-.29,1.33-.46,2.73-.46,4.23,0,2.41.56,4.69,1.59,6.7-2.12-1.62-4.46-2.73-7.12-3.36-.17-2.8.29-5.43.74-8ZM10.6,33.58c-.28-.87-.55-1.71-.83-2.49,2.48-.18,4.71-.1,6.74.26.2,1.54.58,3.13,1.25,4.79,2.1,5.26,6.57,8.72,11.95,9.26.03,0,.06,0,.09,0,.1,0,.2-.03.29-.06.04,1.21-.09,2.44-.42,3.63-4.59,1.2-9.36-.13-12.84-3.61-3.63-3.63-5.07-8.15-6.23-11.79ZM31.33,49.7c.58-2,.71-4.08.41-6.1.09-.12.18-.25.26-.38.09.13.17.25.26.38-.3,2.02-.18,4.1.41,6.1h-1.33ZM53.4,33.58c-1.16,3.63-2.61,8.16-6.24,11.79-3.48,3.48-8.25,4.81-12.84,3.61-.32-1.19-.45-2.41-.42-3.63.09.03.19.06.29.06.03,0,.06,0,.09,0,5.38-.54,9.84-4,11.95-9.26.66-1.66,1.05-3.25,1.25-4.79,2.03-.35,4.26-.44,6.74-.26-.28.78-.55,1.62-.83,2.49Z"/>
</svg>