<?xml version="1.0" encoding="UTF-8"?>
<svg id="Capa_1" xmlns="http://www.w3.org/2000/svg" version="1.1" viewBox="0 0 64 64">
  <!-- Generator: Adobe Illustrator 30.0.0, SVG Export Plug-In . SVG Version: 2.1.1 Build 123)  -->
  <defs>
    <style>
      .st0 {
        fill: #35b1e5;
      }
    </style>
  </defs>
  <path class="st0" d="M54.71,23.15c-1.05-1.3-2.62-2.04-4.31-2.04h-10.7v-9.7c0-2.7-2.2-4.9-4.9-4.9h-.5c-2.18,0-4.06,1.47-4.67,3.68l-1.7,6.7c-.85,3.3-2.8,6.1-5.65,8.09l-5.9,4.2c-.17.12-.27.3-.33.48-.78-.64-1.76-1.05-2.85-1.05h-4.7c-2.48,0-4.5,2.02-4.5,4.5v14.7c0,2.48,2.02,4.5,4.5,4.5h4.7c1.64,0,3.06-.89,3.84-2.2,4.28,1.77,10.05,3,14.26,3h12.1c3.9,0,4.72-1.96,5.6-5.2.17-.6.49-1.17.94-1.62l.39-.4c2.42-2.47,3.47-5.98,2.73-9.24-.19-.79-.2-1.61-.03-2.37.29-1.3.74-2.57,1.33-3.76l1.35-2.7c.03-.07.06-.14.08-.21.34-1.57-.05-3.19-1.07-4.44ZM15.9,47.8c0,1.51-1.19,2.7-2.7,2.7h-4.7c-1.51,0-2.7-1.19-2.7-2.7v-14.7c0-1.51,1.19-2.7,2.7-2.7h4.7c1.51,0,2.7,1.19,2.7,2.7v14.7ZM54.04,27.11l-1.3,2.59c-.66,1.33-1.16,2.73-1.48,4.18-.22,1.02-.21,2.11.05,3.23.6,2.6-.27,5.48-2.27,7.51l-.39.4c-.67.68-1.15,1.51-1.4,2.43-.85,3.13-1.31,3.86-3.86,3.86h-12.1c-3.96,0-9.63-1.21-13.66-2.9.03-.2.06-.4.06-.6v-14.7c0-.85-.25-1.64-.66-2.32.13-.02.27-.06.39-.15l5.89-4.2c3.2-2.24,5.4-5.39,6.36-9.12l1.69-6.68c.4-1.42,1.55-2.34,2.93-2.34h.5c1.71,0,3.1,1.39,3.1,3.1v10.6c0,.5.4.9.9.9h11.6c1.14,0,2.21.5,2.91,1.38.65.8.91,1.83.73,2.83Z"/>
</svg>