<svg xmlns="http://www.w3.org/2000/svg" width="480" height="120" viewBox="0 0 480 120" fill="none">
  <g transform="translate(12,12)">
  <rect x="8" y="8" width="80" height="80" rx="18" fill="#EEF6FD"/>
  <path d="M22 40L48 28L74 40L48 52L22 40Z" stroke="#0B3D82" stroke-width="3.5" stroke-linejoin="round"/>
  <path d="M34 46V58C34 58 40 66 48 66C56 66 62 58 62 58V46" stroke="#0B3D82" stroke-width="3.5" stroke-linecap="round" stroke-linejoin="round"/>
  <path d="M74 40V58" stroke="#0B3D82" stroke-width="3.5" stroke-linecap="round"/>
  <path d="M70 66C70 63.8 71.8 62 74 62C76.2 62 78 63.8 78 66" stroke="#0B3D82" stroke-width="3.5" stroke-linecap="round"/>
</g>
  <g transform="translate(132,12)">
  <rect x="8" y="8" width="80" height="80" rx="18" fill="#EEF6FD"/>
  <path d="M39 38L45 32C49 28 55 28 59 32L64 37C68 41 68 47 64 51L57 58" stroke="#0B3D82" stroke-width="3.5" stroke-linecap="round" stroke-linejoin="round"/>
  <path d="M57 38L51 32C47 28 41 28 37 32L32 37C28 41 28 47 32 51L50 69C53 72 58 72 61 69C63 67 63 64 61 62" stroke="#0B3D82" stroke-width="3.5" stroke-linecap="round" stroke-linejoin="round"/>
  <path d="M45 56L55 66" stroke="#0B3D82" stroke-width="3.5" stroke-linecap="round"/>
  <path d="M39 62L47 70" stroke="#0B3D82" stroke-width="3.5" stroke-linecap="round"/>
  <path d="M51 50L64 63C67 66 72 66 75 63C78 60 78 55 75 52L64 41" stroke="#0B3D82" stroke-width="3.5" stroke-linecap="round" stroke-linejoin="round"/>
</g>
  <g transform="translate(252,12)">
  <rect x="8" y="8" width="80" height="80" rx="18" fill="#EEF6FD"/>
  <path d="M48 72C48 72 27 58.8 27 43C27 34.8 33.4 29 41 29C45.3 29 48 31.4 50 34.4C52 31.4 54.7 29 59 29C66.6 29 73 34.8 73 43C73 58.8 48 72 48 72Z" stroke="#0B3D82" stroke-width="3.5" stroke-linecap="round" stroke-linejoin="round"/>
</g>
  <g transform="translate(372,12)">
  <rect x="8" y="8" width="80" height="80" rx="18" fill="#EEF6FD"/>
  <path d="M36 24L48 44L60 24H72L56 50" stroke="#0B3D82" stroke-width="3.5" stroke-linecap="round" stroke-linejoin="round"/>
  <path d="M60 24L52 39" stroke="#0B3D82" stroke-width="3.5" stroke-linecap="round"/>
  <circle cx="48" cy="62" r="17" stroke="#0B3D82" stroke-width="3.5"/>
  <path d="M48 52L51 58L58 59L53 64L54 71L48 67.5L42 71L43 64L38 59L45 58L48 52Z" stroke="#0B3D82" stroke-width="3" stroke-linejoin="round"/>
</g>
</svg>