<?xml version="1.0" encoding="UTF-8"?>
<svg id="Capa_1" xmlns="http://www.w3.org/2000/svg" version="1.1" viewBox="0 0 48 48">
  <!-- Generator: Adobe Illustrator 30.4.0, SVG Export Plug-In . SVG Version: 2.1.4 Build 226)  -->
  <defs>
    <style>
      .st0 {
        stroke-miterlimit: 10;
      }

      .st0, .st1 {
        fill: none;
        stroke: #fff;
      }

      .st1 {
        stroke-opacity: .8;
        stroke-width: 1.4px;
      }
    </style>
  </defs>
  <circle class="st1" cx="24" cy="24.2" r="19"/>
  <path class="st0" d="M27.8,16.2h-7.6c-2.3,0-4.2,1.9-4.2,4.2v7.6c0,2.3,1.9,4.2,4.2,4.2h7.6c2.3,0,4.2-1.9,4.2-4.2v-7.6c0-2.3-1.9-4.2-4.2-4.2ZM24,28.3c-2.3,0-4.1-1.8-4.1-4.1s1.8-4.1,4.1-4.1,4.1,1.8,4.1,4.1-1.8,4.1-4.1,4.1ZM29.2,20.3c-.7,0-1.3-.6-1.3-1.3s.6-1.3,1.3-1.3,1.3.6,1.3,1.3-.6,1.3-1.3,1.3Z"/>
</svg>