<svg xmlns="http://www.w3.org/2000/svg" width="32" height="32" viewBox="0 0 96 96" fill="none">
  <path d="M48 24C34.8 24 24 34.4 24 47.2C24 51.6 25.3 55.7 27.5 59.2L24.8 72L38 69.1C41.1 70.8 44.5 71.7 48 71.7C61.2 71.7 72 61.3 72 48.5C72 35.7 61.2 24 48 24Z" stroke="#FFFFFF" stroke-width="6" stroke-linecap="round" stroke-linejoin="round"/>
  <path d="M38.5 36.8C39.1 35.6 40 35.6 40.8 35.6H42.4C42.9 35.6 43.6 35.7 44.2 37L46.3 42.1C46.9 43.5 46.4 44.2 45.9 44.9L44.5 46.5C44 47 43.5 47.5 44 48.5C44.5 49.5 46.1 52.2 48.6 54.4C51.7 57.1 54.3 58 55.4 58.5C56.5 59 57.1 58.9 57.7 58.2L60.3 55.2C60.9 54.5 61.6 54.6 62.4 54.9L67.2 57.2C68.5 57.8 68.6 58.4 68.4 59.1C68.2 59.8 67.6 62.1 65.8 63.6C64 65.1 61.7 65.3 60.6 65.3C59.5 65.3 53.8 64.3 48 59.1C40.9 52.8 37 45.1 36.6 44.1C36.2 43.1 34 38.8 38.5 36.8Z" fill="#FFFFFF"/>
</svg>